<svg id="Layer_1" data-name="Layer 1" xmlns="http://www.w3.org/2000/svg" viewBox="0 0 329.27 54.37"><defs><style>.cls-1{opacity:0.2;}.cls-2,.cls-3{fill:#fff;}.cls-3{opacity:0.5;}.cls-4{fill:#3bbfba;}</style></defs><title>MatchKF</title><g class="cls-1"><path class="cls-2" d="M49.27,15.42l-17,22.64H30.36L13.75,15.34V53.25H3.92V1.12H15.24L31.55,23.54,47.86,1.12H59.1V53.25H49.27Z"/><path class="cls-2" d="M105.36,43.35H78.1l-4.47,9.83H63L86.37,1H97.1l23.39,52.13H109.76ZM91.73,12,82.05,34.19h19.36Z"/><path class="cls-2" d="M129.87,10H113.34V1h42.9V10H139.7v43.2h-9.83Z"/><path class="cls-2" d="M208.15,46.62a27.48,27.48,0,0,1-19.81,7.75C169,54.37,160.78,41,160.71,27.48S169.5,0,188.34,0a26.9,26.9,0,0,1,19.14,8l-6.55,6.33a17.91,17.91,0,0,0-12.59-4.92c-12.59,0-18,9.38-17.95,18.1s5.06,17.65,17.95,17.65a19.2,19.2,0,0,0,13.11-5.29Z"/><path class="cls-2" d="M249.19,53.25V32.17H223.57V53.25h-9.83V1.12h9.83v22h25.62v-22h9.76V53.25Z"/></g><polygon class="cls-3" points="10.73 53.13 6.73 53.13 6.73 20.62 10.73 26.7 10.73 53.13"/><path class="cls-4" d="M228,30.38,217.8,41.33l11,11.54v.26h-5.33L213.91,43V53.13H209.6V30.25h4.31v9.67l8.69-9.67H228Z"/><path class="cls-4" d="M235.06,32.47a2.35,2.35,0,0,1-4.71,0A2.35,2.35,0,0,1,235.06,32.47ZM230.72,37V53.13h4V37Z"/><path class="cls-4" d="M252.12,51.07a8.29,8.29,0,0,1-6.21,2.55c-4.67,0-8.56-2.81-8.56-8.53s3.89-8.53,8.56-8.53a7.65,7.65,0,0,1,5.82,2.39l-2.52,2.65A4.9,4.9,0,0,0,246,40.32a4.53,4.53,0,0,0-4.64,4.77,4.39,4.39,0,0,0,4.58,4.71,4.84,4.84,0,0,0,3.53-1.34Z"/><path class="cls-4" d="M257.78,30.28v13.2L263.21,37H268v.23l-6.57,7.35,7.48,8.24v.29h-4.8l-6.31-7.29v7.29h-4V30.28Z"/><path class="cls-4" d="M270.56,40.64h12.06V44.3H270.56Z"/><path class="cls-4" d="M301.71,45.09a8.38,8.38,0,1,1-16.77,0,8.38,8.38,0,1,1,16.77,0Zm-12.78,0c0,2.45,1.47,4.74,4.38,4.74s4.38-2.29,4.38-4.74a4.55,4.55,0,0,0-4.38-4.77C290.43,40.32,288.93,42.67,288.93,45.09Z"/><path class="cls-4" d="M305.76,53.13V40.74h-3v-3.5h3V36.17c0-4.31,2.91-6.31,6.14-6.31a7.77,7.77,0,0,1,4.18,1.31l-1.47,3a4.44,4.44,0,0,0-2.45-.85c-1.37,0-2.42.92-2.42,2.88v1.08h4.74v3.5h-4.74V53.13Z"/><path class="cls-4" d="M318.94,53.13V40.74h-3v-3.5h3V36.17c0-4.31,2.91-6.31,6.14-6.31a7.77,7.77,0,0,1,4.18,1.31l-1.47,3a4.44,4.44,0,0,0-2.45-.85c-1.37,0-2.42.92-2.42,2.88v1.08h4.74v3.5h-4.74V53.13Z"/><path class="cls-2" d="M20.12,35.44,3.88,10.72H0V53.13H5.54V18.89l14.09,21.4h1.09L37,15.45V53.13h3.21V10.72h-4Z"/><path class="cls-2" d="M64.16,10.72l-19,42.42h3.51l4.6-10.42H78.58l4.67,10.42h3.51l-19-42.42Zm-9.63,29L65.92,13.87,77.31,39.68Z"/><polygon class="cls-2" points="81.97 13.69 97.3 13.69 97.3 53.13 100.58 53.13 100.58 13.69 115.9 13.69 115.9 10.78 81.97 10.78 81.97 13.69"/><path class="cls-2" d="M141.65,13.14a18.56,18.56,0,0,1,13.21,5.39l2.24-1.94a21.84,21.84,0,0,0-15.45-6.36c-14.54,0-21.93,10.6-21.81,21.93s7.51,21.45,21.81,21.45a21.84,21.84,0,0,0,15.45-6.36l-2.18-2.06a19,19,0,0,1-13.27,5.39C129.41,50.59,123.11,42,123,32,122.93,21.87,129.29,13.14,141.65,13.14Z"/><polygon class="cls-2" points="195.09 10.72 195.09 30.9 168.06 30.9 168.06 10.72 164.79 10.72 164.79 53.13 168.06 53.13 168.06 33.87 195.09 33.87 195.09 53.13 198.36 53.13 198.36 10.72 195.09 10.72"/></svg>